<?xml version="1.0" standalone="no"?>
<!DOCTYPE svg PUBLIC "-//W3C//DTD SVG 20010904//EN"
 "http://www.w3.org/TR/2001/REC-SVG-20010904/DTD/svg10.dtd">
<svg version="1.0" xmlns="http://www.w3.org/2000/svg"
 width="894.000000pt" height="894.000000pt" viewBox="0 0 894.000000 894.000000"
 preserveAspectRatio="xMidYMid meet">
<metadata>
Created by potrace 1.14, written by Peter Selinger 2001-2017
</metadata>
<g transform="translate(0.000000,894.000000) scale(0.100000,-0.100000)"
fill="#000000" stroke="none">
<path d="M4478 8886 c-1 -2 -82 -6 -178 -10 -96 -4 -186 -9 -200 -10 -14 -1
-56 -6 -95 -10 -142 -15 -426 -67 -581 -106 -626 -157 -1189 -436 -1694 -839
-649 -518 -1150 -1235 -1414 -2023 -81 -241 -147 -509 -182 -738 -3 -25 -8
-52 -9 -60 -2 -8 -6 -46 -10 -85 -4 -38 -9 -79 -11 -90 -18 -96 -25 -576 -11
-750 58 -734 275 -1399 655 -2015 58 -93 249 -367 276 -396 6 -6 25 -29 41
-50 67 -87 196 -227 329 -359 119 -118 190 -181 361 -324 11 -9 63 -47 115
-86 450 -329 925 -559 1465 -708 99 -28 250 -63 305 -72 19 -3 55 -10 80 -15
25 -5 81 -14 125 -20 44 -6 91 -12 105 -15 207 -34 802 -40 993 -10 12 2 49 6
82 10 33 3 67 8 75 10 8 2 35 6 60 9 53 7 87 13 156 27 28 5 64 12 80 15 90
16 388 99 509 142 557 196 1021 461 1453 829 114 97 339 320 437 433 26 30 59
69 74 85 14 17 42 50 61 75 19 25 38 50 43 55 239 305 477 726 623 1107 119
309 229 741 259 1018 4 36 9 72 10 80 20 108 28 672 13 850 -28 314 -86 614
-177 915 -183 607 -489 1155 -919 1645 -99 113 -313 323 -426 418 -50 42 -93
79 -96 82 -3 3 -59 46 -125 96 -235 176 -436 299 -700 429 -463 227 -927 366
-1425 425 -52 6 -108 13 -125 15 -16 3 -109 7 -205 11 -96 3 -180 7 -187 9 -6
2 -13 2 -15 1z"/>
</g>
</svg>
